<svg width="20" height="20" viewBox="0 0 20 20" fill="none" xmlns="http://www.w3.org/2000/svg">
<path fill-rule="evenodd" clip-rule="evenodd" d="M9.74618 1C8.8702 1 7.99422 1.28682 7.26761 1.86047L2.52142 5.60746C1.56058 6.36602 1 7.5228 1 8.74698V14.3167C1 16.5259 2.79086 18.3167 5 18.3167H5.98423C6.53651 18.3167 6.98423 17.869 6.98423 17.3167V14.7928C6.98423 13.6882 7.87966 12.7928 8.98423 12.7928H9.74618V1Z" fill="#4B56D2"/>
<path d="M7.26761 1.86047L7.73234 2.44913L7.26761 1.86047ZM9.74618 1H10.4962V0.25L9.74618 0.25V1ZM2.52142 5.60746L2.05669 5.01879H2.05669L2.52142 5.60746ZM9.74618 12.7928V13.5428H10.4962V12.7928H9.74618ZM7.73234 2.44913C8.32279 1.98298 9.03394 1.75 9.74618 1.75V0.25C8.70647 0.25 7.66566 0.59066 6.80287 1.27181L7.73234 2.44913ZM2.98616 6.19612L7.73234 2.44913L6.80287 1.27181L2.05669 5.01879L2.98616 6.19612ZM1.75 8.74698C1.75 7.75233 2.20547 6.81245 2.98616 6.19612L2.05669 5.01879C0.915689 5.91958 0.25 7.29326 0.25 8.74698H1.75ZM1.75 14.3167V8.74698H0.25V14.3167H1.75ZM5 17.5667C3.20508 17.5667 1.75 16.1116 1.75 14.3167H0.25C0.25 16.9401 2.37665 19.0667 5 19.0667V17.5667ZM5.98423 17.5667H5V19.0667H5.98423V17.5667ZM6.23423 17.3167C6.23423 17.4548 6.1223 17.5667 5.98423 17.5667V19.0667C6.95073 19.0667 7.73423 18.2832 7.73423 17.3167H6.23423ZM6.23423 14.7928V17.3167H7.73423V14.7928H6.23423ZM8.98423 12.0428C7.46544 12.0428 6.23423 13.274 6.23423 14.7928H7.73423C7.73423 14.1025 8.29387 13.5428 8.98423 13.5428V12.0428ZM9.74618 12.0428H8.98423V13.5428H9.74618V12.0428ZM10.4962 12.7928V1H8.99618V12.7928H10.4962Z" fill="#4B56D2"/>
<g opacity="0.3">
<path fill-rule="evenodd" clip-rule="evenodd" d="M9.74619 1C10.6222 1 11.4981 1.28682 12.2248 1.86047L16.9709 5.60746C17.9318 6.36602 18.4924 7.5228 18.4924 8.74698V14.3167C18.4924 16.5259 16.7015 18.3167 14.4924 18.3167H13.5081C12.9559 18.3167 12.5081 17.869 12.5081 17.3167V14.7928C12.5081 13.6882 11.6127 12.7928 10.5081 12.7928H9.74619V1Z" fill="#4B56D2"/>
<path d="M12.2248 1.86047L11.76 2.44913V2.44913L12.2248 1.86047ZM9.74619 1H8.99619V0.25L9.74619 0.25V1ZM16.9709 5.60746L17.4357 5.01879H17.4357L16.9709 5.60746ZM9.74619 12.7928V13.5428H8.99619V12.7928H9.74619ZM11.76 2.44913C11.1696 1.98298 10.4584 1.75 9.74619 1.75V0.25C10.7859 0.25 11.8267 0.59066 12.6895 1.27181L11.76 2.44913ZM16.5062 6.19612L11.76 2.44913L12.6895 1.27181L17.4357 5.01879L16.5062 6.19612ZM17.7424 8.74698C17.7424 7.75233 17.2869 6.81245 16.5062 6.19612L17.4357 5.01879C18.5767 5.91958 19.2424 7.29326 19.2424 8.74698H17.7424ZM17.7424 14.3167V8.74698H19.2424V14.3167H17.7424ZM14.4924 17.5667C16.2873 17.5667 17.7424 16.1116 17.7424 14.3167H19.2424C19.2424 16.9401 17.1157 19.0667 14.4924 19.0667V17.5667ZM13.5081 17.5667H14.4924V19.0667H13.5081V17.5667ZM13.2581 17.3167C13.2581 17.4548 13.3701 17.5667 13.5081 17.5667V19.0667C12.5416 19.0667 11.7581 18.2832 11.7581 17.3167H13.2581ZM13.2581 14.7928V17.3167H11.7581V14.7928H13.2581ZM10.5081 12.0428C12.0269 12.0428 13.2581 13.274 13.2581 14.7928H11.7581C11.7581 14.1025 11.1985 13.5428 10.5081 13.5428V12.0428ZM9.74619 12.0428H10.5081V13.5428H9.74619V12.0428ZM8.99619 12.7928V1H10.4962V12.7928H8.99619Z" fill="#4B56D2"/>
</g>
</svg>
