<svg width="19" height="20" viewBox="0 0 19 20" fill="none" xmlns="http://www.w3.org/2000/svg">
<path opacity="0.3" d="M4 20L9 20C11.2091 20 13 18.2091 13 16L13 14L13 6L13 4C13 1.79086 11.2091 -1.56562e-07 9 -3.49691e-07L4 -7.86805e-07C1.79086 -9.79934e-07 1.59189e-06 1.79086 1.39876e-06 4L3.49691e-07 16C1.56562e-07 18.2091 1.79086 20 4 20Z" fill="white"/>
<path d="M8 7L5.70711 9.29289C5.31658 9.68342 5.31658 10.3166 5.70711 10.7071L8 13M6 10L18 10" stroke="white" stroke-width="1.5" stroke-linecap="round"/>
</svg>
