<svg width="16" height="15" viewBox="0 0 16 15" fill="none" xmlns="http://www.w3.org/2000/svg">
<path d="M7.37112 0.559465C5.38333 -0.186488 3.16754 -0.186488 1.17975 0.559464C0.484599 0.82033 0 1.46634 0 2.2151V12.5138C0 13.6402 1.17654 14.3083 2.16995 13.9355C3.521 13.4285 5.02986 13.4285 6.38091 13.9355L7.78707 14.4632C7.85222 14.4877 7.92253 14.4987 7.9932 14.4971V0.792911L7.37112 0.559465Z" fill="#4B56D2"/>
<path opacity="0.3" d="M7.99319 14.4971C8.06386 14.4987 8.13417 14.4877 8.19932 14.4632L9.60548 13.9355C10.9565 13.4285 12.4654 13.4285 13.8164 13.9355C14.8099 14.3083 15.9864 13.6402 15.9864 12.5138V2.2151C15.9864 1.46634 15.5018 0.82033 14.8066 0.559464C12.8189 -0.186488 10.6031 -0.186488 8.61527 0.559465L7.99319 0.792911V14.4971Z" fill="#4B56D2"/>
</svg>
