<svg width="21" height="22" viewBox="0 0 21 22" fill="none" xmlns="http://www.w3.org/2000/svg">
<g opacity="0.3">
<path d="M11.0633 0.25C11.1258 0.25 11.1881 0.252128 11.25 0.25634V5C11.25 6.51878 12.4812 7.75 14 7.75H17.75V13.1454C17.5184 13.0516 17.2652 13 17 13C15.8954 13 15 13.8954 15 15V16H14C12.8954 16 12 16.8954 12 18C12 19.1046 12.8954 20 14 20H15V21C15 21.1017 15.0076 21.2016 15.0222 21.2993C14.4087 21.5884 13.7232 21.75 13 21.75H5C2.37665 21.75 0.25 19.6234 0.25 17V5C0.25 2.37665 2.37665 0.25 5 0.25H11.0633Z" fill="white"/>
<path d="M17.1126 5.96359C17.1887 6.0549 17.2584 6.15059 17.3215 6.25H14C13.3096 6.25 12.75 5.69036 12.75 5V0.828021C12.905 0.94837 13.048 1.08601 13.1759 1.23949L17.1126 5.96359Z" fill="white"/>
</g>
<path d="M20.75 18C20.75 18.4142 20.4142 18.75 20 18.75H17.75V21C17.75 21.4142 17.4142 21.75 17 21.75C16.5858 21.75 16.25 21.4142 16.25 21V18.75H14C13.5858 18.75 13.25 18.4142 13.25 18C13.25 17.5858 13.5858 17.25 14 17.25H16.25V15C16.25 14.5858 16.5858 14.25 17 14.25C17.4142 14.25 17.75 14.5858 17.75 15V17.25H20C20.4142 17.25 20.75 17.5858 20.75 18Z" fill="white"/>
</svg>
