<svg width="17" height="13" viewBox="0 0 17 13" fill="none" xmlns="http://www.w3.org/2000/svg">
<path fill-rule="evenodd" clip-rule="evenodd" d="M14.8824 11.5352C14.9252 11.5408 14.968 11.5467 15.0108 11.5527L15.2258 11.5829C16.1622 11.7143 17 11.0006 17 10.0714V9.36233C17 8.69783 16.5747 8.10507 15.9376 7.88157C15.2016 7.62335 14.4417 7.45522 13.6746 7.37718C14.475 7.95587 14.9714 8.89296 14.9714 9.91531V10.7957C14.9714 11.0514 14.9405 11.2989 14.8824 11.5352ZM11.6381 6.43387C11.957 6.56555 12.3074 6.63833 12.6751 6.63833C14.1545 6.63833 15.3537 5.46034 15.3537 4.00721C15.3537 2.55409 14.1545 1.3761 12.6751 1.3761C12.6313 1.3761 12.5877 1.37713 12.5444 1.37918C12.8134 1.95212 12.9638 2.59184 12.9638 3.26668C12.9638 4.50634 12.4564 5.6275 11.6381 6.43387Z" fill="#4B56D2"/>
<path fill-rule="evenodd" clip-rule="evenodd" d="M2.11764 11.5352C2.07483 11.5408 2.03203 11.5467 1.98925 11.5527L1.77418 11.5829C0.837786 11.7143 1.09673e-05 11.0006 1.09673e-05 10.0714V9.36233C1.09673e-05 8.69783 0.425282 8.10507 1.06237 7.88157C1.79844 7.62335 2.55833 7.45522 3.32543 7.37718C2.52501 7.95587 2.02856 8.89296 2.02856 9.91531V10.7957C2.02856 11.0514 2.0595 11.2989 2.11764 11.5352ZM5.36194 6.43387C5.04296 6.56555 4.69257 6.63833 4.32488 6.63833C2.84553 6.63833 1.64627 5.46034 1.64627 4.00721C1.64627 2.55409 2.84553 1.3761 4.32488 1.3761C4.36871 1.3761 4.41229 1.37713 4.4556 1.37918C4.18658 1.95212 4.03623 2.59184 4.03623 3.26668C4.03623 4.50634 4.54357 5.6275 5.36194 6.43387Z" fill="#4B56D2"/>
<path opacity="0.3" fill-rule="evenodd" clip-rule="evenodd" d="M4.53884 8.07684C7.11175 7.15794 9.92341 7.15794 12.4963 8.07684C13.2733 8.35432 13.7919 9.09026 13.7919 9.91527V10.7956C13.7919 11.9492 12.7702 12.8353 11.6282 12.6722L11.366 12.6347C9.47663 12.3648 7.55853 12.3648 5.6692 12.6347L5.40692 12.6722C4.26495 12.8353 3.24326 11.9492 3.24326 10.7956V9.91527C3.24326 9.09026 3.76189 8.35432 4.53884 8.07684Z" fill="#4B56D2"/>
<path opacity="0.3" fill-rule="evenodd" clip-rule="evenodd" d="M11.7842 3.26665C11.7842 1.46253 10.3217 0 8.5176 0C6.71348 0 5.25095 1.46253 5.25095 3.26665C5.25095 5.07077 6.71348 6.5333 8.5176 6.5333C10.3217 6.5333 11.7842 5.07077 11.7842 3.26665Z" fill="#4B56D2"/>
</svg>
