<svg width="22" height="17" viewBox="0 0 22 17" fill="none" xmlns="http://www.w3.org/2000/svg">
<path fill-rule="evenodd" clip-rule="evenodd" d="M19.307 14.9195C19.3614 14.9267 19.4159 14.9341 19.4703 14.9417L19.7438 14.9801C20.9346 15.1472 22 14.2396 22 13.058V12.1562C22 11.3112 21.4592 10.5573 20.649 10.2731C19.7129 9.94474 18.7466 9.73092 17.7711 9.63168C18.789 10.3676 19.4203 11.5593 19.4203 12.8594V13.979C19.4203 14.3042 19.3809 14.619 19.307 14.9195ZM15.1812 8.43204C15.5868 8.59951 16.0324 8.69206 16.5 8.69206C18.3813 8.69206 19.9064 7.19399 19.9064 5.34603C19.9064 3.49807 18.3813 2 16.5 2C16.4443 2 16.3889 2.00131 16.3338 2.00391C16.6759 2.73253 16.8671 3.54606 16.8671 4.40426C16.8671 5.98076 16.2219 7.40657 15.1812 8.43204Z" fill="white"/>
<path fill-rule="evenodd" clip-rule="evenodd" d="M3.07387 14.9195C3.01942 14.9267 2.96499 14.9341 2.91058 14.9417L2.63707 14.9801C1.44625 15.1472 0.380836 14.2396 0.380836 13.058V12.1562C0.380836 11.3112 0.92166 10.5573 1.73185 10.2731C2.66791 9.94474 3.63427 9.73092 4.60979 9.63168C3.59191 10.3676 2.96057 11.5593 2.96057 12.8594V13.979C2.96057 14.3042 2.99992 14.619 3.07387 14.9195ZM7.19971 8.43204C6.79406 8.59951 6.34845 8.69206 5.88084 8.69206C3.99952 8.69206 2.47442 7.19399 2.47442 5.34603C2.47442 3.49807 3.99952 2 5.88084 2C5.93657 2 5.992 2.00131 6.04707 2.00391C5.70496 2.73253 5.51377 3.54606 5.51377 4.40426C5.51377 5.98076 6.15896 7.40657 7.19971 8.43204Z" fill="white"/>
<path opacity="0.3" fill-rule="evenodd" clip-rule="evenodd" d="M6.15298 10.5219C9.425 9.35336 13.0006 9.35336 16.2727 10.5219C17.2607 10.8748 17.9203 11.8107 17.9203 12.8599V13.9795C17.9203 15.4465 16.621 16.5734 15.1687 16.3659L14.8351 16.3183C12.4325 15.975 9.99318 15.975 7.59049 16.3183L7.25693 16.3659C5.80468 16.5734 4.50537 15.4465 4.50537 13.9795V12.8599C4.50537 11.8107 5.16492 10.8748 6.15298 10.5219Z" fill="white"/>
<path opacity="0.3" fill-rule="evenodd" clip-rule="evenodd" d="M15.3671 4.40426C15.3671 2.10992 13.5072 0.25 11.2128 0.25C8.91852 0.25 7.05859 2.10992 7.05859 4.40426C7.05859 6.69859 8.91852 8.55851 11.2128 8.55851C13.5072 8.55851 15.3671 6.69859 15.3671 4.40426Z" fill="white"/>
</svg>
