<svg width="22" height="22" viewBox="0 0 22 22" fill="none" xmlns="http://www.w3.org/2000/svg">
<path fill-rule="evenodd" clip-rule="evenodd" d="M11 1.59668C10.124 1.59668 9.24804 1.8835 8.52142 2.45715L3.02142 6.79925C2.06058 7.55782 1.5 8.7146 1.5 9.93879V16.5004C1.5 18.7095 3.29086 20.5004 5.5 20.5004H7C7.55228 20.5004 8 20.0527 8 19.5004V16.5004C8 15.3958 8.89543 14.5004 10 14.5004H11V1.59668Z" fill="white"/>
<path d="M8.52142 2.45715L8.05669 1.86849V1.86849L8.52142 2.45715ZM11 1.59668H11.75V0.84668L11 0.84668V1.59668ZM3.02142 6.79925L3.48616 7.38792H3.48616L3.02142 6.79925ZM11 14.5004V15.2504H11.75V14.5004H11ZM8.98616 3.04581C9.57661 2.57966 10.2878 2.34668 11 2.34668V0.84668C9.96028 0.84668 8.91948 1.18734 8.05669 1.86849L8.98616 3.04581ZM3.48616 7.38792L8.98616 3.04581L8.05669 1.86849L2.55669 6.21059L3.48616 7.38792ZM2.25 9.93879C2.25 8.94413 2.70547 8.00425 3.48616 7.38792L2.55669 6.21059C1.41569 7.11138 0.75 8.48506 0.75 9.93879H2.25ZM2.25 16.5004V9.93879H0.75V16.5004H2.25ZM5.5 19.7504C3.70507 19.7504 2.25 18.2953 2.25 16.5004H0.75C0.75 19.1237 2.87665 21.2504 5.5 21.2504V19.7504ZM7 19.7504H5.5V21.2504H7V19.7504ZM7.25 19.5004C7.25 19.6384 7.13807 19.7504 7 19.7504V21.2504C7.9665 21.2504 8.75 20.4669 8.75 19.5004H7.25ZM7.25 16.5004V19.5004H8.75V16.5004H7.25ZM10 13.7504C8.48122 13.7504 7.25 14.9816 7.25 16.5004H8.75C8.75 15.81 9.30964 15.2504 10 15.2504V13.7504ZM11 13.7504H10V15.2504H11V13.7504ZM11.75 14.5004V1.59668H10.25V14.5004H11.75Z" fill="white"/>
<g opacity="0.3">
<path fill-rule="evenodd" clip-rule="evenodd" d="M11 1.59668C11.876 1.59668 12.752 1.8835 13.4786 2.45715L18.9786 6.79925C19.9394 7.55782 20.5 8.7146 20.5 9.93879V16.5004C20.5 18.7095 18.7091 20.5004 16.5 20.5004H15C14.4477 20.5004 14 20.0527 14 19.5004V16.5004C14 15.3958 13.1046 14.5004 12 14.5004H11V1.59668Z" fill="white"/>
<path d="M13.4786 2.45715L13.9433 1.86849V1.86849L13.4786 2.45715ZM11 1.59668H10.25V0.84668L11 0.84668V1.59668ZM18.9786 6.79925L18.5138 7.38792H18.5138L18.9786 6.79925ZM11 14.5004V15.2504H10.25V14.5004H11ZM13.0138 3.04581C12.4234 2.57966 11.7122 2.34668 11 2.34668V0.84668C12.0397 0.84668 13.0805 1.18734 13.9433 1.86849L13.0138 3.04581ZM18.5138 7.38792L13.0138 3.04581L13.9433 1.86849L19.4433 6.21059L18.5138 7.38792ZM19.75 9.93879C19.75 8.94413 19.2945 8.00425 18.5138 7.38792L19.4433 6.21059C20.5843 7.11138 21.25 8.48506 21.25 9.93879H19.75ZM19.75 16.5004V9.93879H21.25V16.5004H19.75ZM16.5 19.7504C18.2949 19.7504 19.75 18.2953 19.75 16.5004H21.25C21.25 19.1237 19.1234 21.2504 16.5 21.2504V19.7504ZM15 19.7504H16.5V21.2504H15V19.7504ZM14.75 19.5004C14.75 19.6384 14.8619 19.7504 15 19.7504V21.2504C14.0335 21.2504 13.25 20.4669 13.25 19.5004H14.75ZM14.75 16.5004V19.5004H13.25V16.5004H14.75ZM12 13.7504C13.5188 13.7504 14.75 14.9816 14.75 16.5004H13.25C13.25 15.81 12.6904 15.2504 12 15.2504V13.7504ZM11 13.7504H12V15.2504H11V13.7504ZM10.25 14.5004V1.59668H11.75V14.5004H10.25Z" fill="white"/>
</g>
</svg>
