<svg width="22" height="20" viewBox="0 0 22 20" fill="none" xmlns="http://www.w3.org/2000/svg">
<path d="M10.1634 1.00242C7.49 -0.00080657 4.51 -0.000806868 1.83663 1.00242C0.901734 1.35326 0.25 2.22207 0.25 3.22907V17.0797C0.25 18.5946 1.83232 19.4932 3.16836 18.9918C4.98537 18.31 7.01463 18.31 8.83164 18.9918L10.7228 19.7015C10.8104 19.7344 10.905 19.7493 11 19.747V1.31638L10.1634 1.00242Z" fill="white"/>
<path opacity="0.3" d="M11 19.747C11.095 19.7493 11.1896 19.7344 11.2772 19.7015L13.1684 18.9918C14.9854 18.31 17.0146 18.31 18.8316 18.9918C20.1677 19.4932 21.75 18.5946 21.75 17.0797V3.22907C21.75 2.22207 21.0983 1.35326 20.1634 1.00242C17.49 -0.000806868 14.51 -0.00080657 11.8366 1.00242L11 1.31638V19.747Z" fill="white"/>
</svg>
