<svg width="8" height="11" viewBox="0 0 8 11" fill="none" xmlns="http://www.w3.org/2000/svg">
<path opacity="0.3" fill-rule="evenodd" clip-rule="evenodd" d="M1.1353 2.03693C0.201456 2.03693 -0.331599 3.10304 0.228706 3.85011C0.467846 4.16896 0.597118 4.55678 0.597118 4.95535V7.91315C0.597118 9.1222 1.57725 10.1023 2.7863 10.1023H4.62982C5.83887 10.1023 6.819 9.1222 6.819 7.91315V4.95535C6.819 4.55678 6.94827 4.16896 7.18741 3.85011C7.74772 3.10304 7.21466 2.03693 6.28082 2.03693H1.1353Z" fill="#4B56D2"/>
<path d="M4.62976 7.45235L4.62976 4.68707" stroke="#4B56D2" stroke-width="0.7" stroke-linecap="round" stroke-linejoin="round"/>
<path d="M2.78619 7.45235L2.78619 4.68707" stroke="#4B56D2" stroke-width="0.7" stroke-linecap="round" stroke-linejoin="round"/>
<path d="M5.5516 2.38264L5.52795 2.31169C5.26684 1.52836 4.53378 1 3.70808 1V1C2.88238 1 2.14932 1.52836 1.88821 2.31169L1.86456 2.38264" stroke="#4B56D2" stroke-width="0.7" stroke-linecap="round"/>
</svg>
